<svg width="19" height="19" viewBox="0 0 19 19" fill="none" xmlns="http://www.w3.org/2000/svg">
<g filter="url(#filter0_d)">
<rect x="2" y="1" width="15" height="15" rx="1.52381" fill="#CAD4E3"/>
<path d="M8.44824 6.97827C8.42027 6.97827 8.39344 6.98938 8.37366 7.00916C8.35389 7.02894 8.34277 7.05577 8.34277 7.08374V10.8395C8.34277 10.8675 8.35389 10.8943 8.37366 10.9141C8.39344 10.9339 8.42027 10.945 8.44824 10.945C8.47621 10.945 8.50304 10.9339 8.52282 10.9141C8.5426 10.8943 8.55371 10.8675 8.55371 10.8395V7.08374C8.55371 7.05577 8.5426 7.02894 8.52282 7.00916C8.50304 6.98938 8.47621 6.97827 8.44824 6.97827V6.97827Z" fill="#464646"/>
<path d="M9.56152 6.97827C9.53355 6.97827 9.50672 6.98938 9.48695 7.00916C9.46717 7.02894 9.45605 7.05577 9.45605 7.08374V10.8395C9.45605 10.8675 9.46717 10.8943 9.48695 10.9141C9.50672 10.9339 9.53355 10.945 9.56152 10.945C9.5895 10.945 9.61632 10.9339 9.6361 10.9141C9.65588 10.8943 9.66699 10.8675 9.66699 10.8395V7.08374C9.66699 7.05577 9.65588 7.02894 9.6361 7.00916C9.61632 6.98938 9.5895 6.97827 9.56152 6.97827V6.97827Z" fill="#464646"/>
<path d="M10.5518 6.97827C10.5238 6.97827 10.497 6.98938 10.4772 7.00916C10.4574 7.02894 10.4463 7.05577 10.4463 7.08374V10.8395C10.4463 10.8675 10.4574 10.8943 10.4772 10.9141C10.497 10.9339 10.5238 10.945 10.5518 10.945C10.5797 10.945 10.6066 10.9339 10.6263 10.9141C10.6461 10.8943 10.6572 10.8675 10.6572 10.8395V7.08374C10.6572 7.05577 10.6461 7.02894 10.6263 7.00916C10.6066 6.98938 10.5797 6.97827 10.5518 6.97827V6.97827Z" fill="#464646"/>
<path d="M5.98438 5.36705H6.56509L7.1169 12.3089L7.1172 12.3122C7.14961 12.6041 7.3838 12.8242 7.66198 12.8242H11.3768C11.6566 12.8242 11.8909 12.6026 11.9219 12.3088L11.9221 12.3072L12.4352 5.36705H13.0156C13.0436 5.36705 13.0704 5.35594 13.0902 5.33616C13.11 5.31638 13.1211 5.28955 13.1211 5.26158C13.1211 5.23361 13.11 5.20678 13.0902 5.187C13.0704 5.16723 13.0436 5.15611 13.0156 5.15611H10.7834V4.73072C10.7841 4.58445 10.7267 4.44388 10.6239 4.33985C10.5211 4.23582 10.3812 4.17681 10.2349 4.17578H8.76509C8.61883 4.17683 8.47895 4.23584 8.37614 4.33987C8.27333 4.44391 8.21597 4.58448 8.21666 4.73074V5.15613H5.98438C5.9564 5.15613 5.92958 5.16724 5.9098 5.18702C5.89002 5.2068 5.87891 5.23363 5.87891 5.2616C5.87891 5.28957 5.89002 5.3164 5.9098 5.33618C5.92958 5.35596 5.9564 5.36705 5.98438 5.36705ZM11.7119 12.2882C11.6917 12.4737 11.5479 12.6133 11.3768 12.6133H7.66198C7.49191 12.6133 7.34817 12.4746 7.32703 12.2904L6.77667 5.36705H12.2237L11.7119 12.2882ZM8.42754 4.73074C8.4268 4.64039 8.46191 4.55343 8.52519 4.48894C8.58847 4.42445 8.67475 4.38769 8.76509 4.38672H10.2349C10.3252 4.3877 10.4115 4.42447 10.4748 4.48896C10.538 4.55345 10.5732 4.6404 10.5724 4.73074V5.15613H8.42754V4.73074Z" fill="#464646"/>
</g>
<defs>
<filter id="filter0_d" x="0.222222" y="0.111111" width="18.5556" height="18.5556" filterUnits="userSpaceOnUse" color-interpolation-filters="sRGB">
<feFlood flood-opacity="0" result="BackgroundImageFix"/>
<feColorMatrix in="SourceAlpha" type="matrix" values="0 0 0 0 0 0 0 0 0 0 0 0 0 0 0 0 0 0 127 0"/>
<feOffset dy="0.888889"/>
<feGaussianBlur stdDeviation="0.888889"/>
<feColorMatrix type="matrix" values="0 0 0 0 0.741176 0 0 0 0 0.741176 0 0 0 0 0.741176 0 0 0 0.3 0"/>
<feBlend mode="normal" in2="BackgroundImageFix" result="effect1_dropShadow"/>
<feBlend mode="normal" in="SourceGraphic" in2="effect1_dropShadow" result="shape"/>
</filter>
</defs>
</svg>
