<svg width="19" height="19" viewBox="0 0 19 19" fill="none" xmlns="http://www.w3.org/2000/svg">
<g filter="url(#filter0_d)">
<rect x="2" y="1" width="15" height="15" rx="1.52381" fill="#CAD4E3"/>
<g clip-path="url(#clip11)">
<path fill-rule="evenodd" clip-rule="evenodd" d="M12.51 8.83523C12.5918 8.87074 12.5979 8.88494 12.6036 8.9677C12.6036 9.62766 12.6057 10.2875 12.6036 10.9475C12.5961 11.7386 11.9134 12.4768 11.0663 12.4847C9.74725 12.4888 8.42826 12.489 7.1092 12.4847C6.31375 12.4771 5.58039 11.7959 5.57238 10.9478C5.56816 9.62871 5.56816 8.30951 5.57238 6.99037C5.5799 6.19226 6.2606 5.45623 7.11897 5.45348H10.2269C10.3304 5.46058 10.3502 5.49616 10.3646 5.56549C10.3815 5.64719 10.3143 5.72876 10.2269 5.73473C9.18827 5.73473 8.14961 5.7315 7.11096 5.7348C6.46014 5.74092 5.86017 6.2985 5.85356 6.9922C5.84941 8.31014 5.84941 9.62808 5.85356 10.9461C5.85982 11.6003 6.41732 12.1969 7.11096 12.2035C8.42882 12.2077 9.74669 12.2076 11.0646 12.2035C11.7192 12.1974 12.3201 11.6216 12.3223 10.9376V8.9677C12.3285 8.87686 12.4122 8.80781 12.51 8.83523ZM12.8691 4.53408C13.3379 4.54336 13.7129 5.13216 13.4022 5.57857L10.9191 9.10094C10.902 9.12246 10.8966 9.12738 10.8734 9.14222L9.74275 9.78305C9.64382 9.83177 9.51684 9.74852 9.53618 9.63005L9.81307 8.38741C9.8196 8.36365 9.82221 8.35774 9.83542 8.33693L12.3185 4.81462C12.4436 4.63948 12.6492 4.53239 12.8691 4.53408ZM12.856 4.81526C12.7349 4.81737 12.6186 4.8784 12.5479 4.9774L10.0814 8.47601L9.87951 9.38219L10.7074 8.91307C11.5298 7.74637 12.3595 6.58467 13.1748 5.41298C13.325 5.19122 13.1736 4.82883 12.8747 4.81554C12.8684 4.81533 12.8622 4.81526 12.856 4.81526Z" fill="#464646"/>
</g>
</g>
<defs>
<filter id="filter0_d" x="0.222222" y="0.111111" width="18.5556" height="18.5556" filterUnits="userSpaceOnUse" color-interpolation-filters="sRGB">
<feFlood flood-opacity="0" result="BackgroundImageFix"/>
<feColorMatrix in="SourceAlpha" type="matrix" values="0 0 0 0 0 0 0 0 0 0 0 0 0 0 0 0 0 0 127 0"/>
<feOffset dy="0.888889"/>
<feGaussianBlur stdDeviation="0.888889"/>
<feColorMatrix type="matrix" values="0 0 0 0 0.741176 0 0 0 0 0.741176 0 0 0 0 0.741176 0 0 0 0.3 0"/>
<feBlend mode="normal" in2="BackgroundImageFix" result="effect1_dropShadow"/>
<feBlend mode="normal" in="SourceGraphic" in2="effect1_dropShadow" result="shape"/>
</filter>
<clipPath id="clip11">
<rect width="9" height="9" fill="white" transform="translate(5 4)"/>
</clipPath>
</defs>
</svg>
