<svg width="10" height="10" viewBox="0 0 10 10" fill="none" xmlns="http://www.w3.org/2000/svg">
<g clip-path="url(#clip12)">
<path d="M9.58042 0H0.418436C0.281131 0 0.193755 0.149787 0.281131 0.27461L3.63886 4.98042C3.78865 5.18014 3.87602 5.44227 3.87602 5.70439V9.81106C3.8885 9.94836 4.00085 10.0357 4.11319 9.98581L6.02297 9.26184C6.08538 9.24936 6.12283 9.17446 6.12283 9.11205V5.70439C6.12283 5.44227 6.21021 5.19262 6.35999 4.98042L9.71772 0.27461C9.8051 0.149787 9.71772 0 9.58042 0Z" fill="#AAAAAA"/>
<path d="M9.58042 0H0.418436C0.281131 0 0.193755 0.149787 0.281131 0.27461L3.63886 4.98042C3.78865 5.18014 3.87602 5.44227 3.87602 5.70439V9.81106C3.8885 9.94836 4.00085 10.0357 4.11319 9.98581L6.02297 9.26184C6.08538 9.24936 6.12283 9.17446 6.12283 9.11205V5.70439C6.12283 5.44227 6.21021 5.19262 6.35999 4.98042L9.71772 0.27461C9.8051 0.149787 9.71772 0 9.58042 0Z" fill="#646464"/>
</g>
<defs>
<clipPath id="clip12">
<rect width="10" height="10" fill="white"/>
</clipPath>
</defs>
</svg>
