<svg width="20" height="20" viewBox="0 0 20 20" fill="none" xmlns="http://www.w3.org/2000/svg">
<path d="M13.0163 1.20554C12.8847 1.19982 12.7546 1.23456 12.6433 1.30509C12.5321 1.37561 12.4451 1.47853 12.3941 1.59999L12.1163 2.53332C11.983 2.58332 11.8497 2.63332 11.7219 2.69443L10.9219 2.2611C10.7994 2.19603 10.6591 2.17224 10.522 2.19326C10.3849 2.21428 10.2582 2.27899 10.1608 2.37777L9.37744 3.16665C9.27957 3.26472 9.2159 3.39172 9.19589 3.52882C9.17587 3.66591 9.20058 3.80581 9.26633 3.92776L9.68856 4.73332C9.62193 4.87085 9.56259 5.01178 9.51078 5.15554L8.633 5.42221C8.50576 5.46672 8.39585 5.55034 8.31902 5.66111C8.24218 5.77187 8.20235 5.9041 8.20522 6.03888V7.14999C8.20511 7.28801 8.24931 7.42242 8.33132 7.53343C8.41333 7.64445 8.52882 7.7262 8.66078 7.76665L9.51633 8.02777C9.56788 8.17344 9.62723 8.31624 9.69411 8.45554L9.27189 9.24443C9.20746 9.36577 9.18349 9.50452 9.20347 9.64044C9.22346 9.77636 9.28636 9.90234 9.383 9.99999L10.1608 10.8055C10.2586 10.9056 10.3863 10.9711 10.5246 10.9921C10.6629 11.0131 10.8043 10.9886 10.9274 10.9222L11.6663 10.5111C11.8003 10.5757 11.9375 10.6332 12.0774 10.6833L12.3386 11.5611C12.3772 11.6946 12.4583 11.8118 12.5696 11.895C12.6809 11.9782 12.8163 12.0229 12.9552 12.0222H14.0663C14.2043 12.0217 14.3384 11.9764 14.4486 11.8933C14.5588 11.8102 14.639 11.6936 14.6774 11.5611L14.9386 10.6778C15.0748 10.6273 15.2083 10.5699 15.3386 10.5055L16.1497 10.9389C16.2722 11.0039 16.4124 11.0277 16.5496 11.0067C16.6867 10.9857 16.8134 10.921 16.9108 10.8222L17.6886 10.0333C17.7873 9.93591 17.852 9.80923 17.8731 9.6721C17.8941 9.53498 17.8703 9.39473 17.8052 9.27221L17.3719 8.44999C17.433 8.32221 17.483 8.18888 17.533 8.04999L18.433 7.77776C18.5639 7.73633 18.6782 7.65416 18.7591 7.54323C18.8401 7.43231 18.8835 7.29842 18.883 7.1611V6.04999C18.8831 5.91197 18.8389 5.77755 18.7569 5.66654C18.6749 5.55553 18.5594 5.47378 18.4274 5.43332L17.5497 5.17221C17.5052 5.03888 17.4497 4.9111 17.3886 4.78332L17.8274 3.94999C17.8919 3.82865 17.9159 3.6899 17.8959 3.55398C17.8759 3.41806 17.813 3.29208 17.7163 3.19443L16.9386 2.40554C16.8407 2.30551 16.713 2.24003 16.5747 2.21899C16.4364 2.19794 16.295 2.22247 16.1719 2.28888L15.3663 2.72777C15.2404 2.66851 15.1126 2.6148 14.983 2.56665L14.7219 1.66665C14.6832 1.53319 14.6021 1.41597 14.4908 1.33276C14.3795 1.24955 14.2442 1.20489 14.1052 1.20554H13.0163ZM13.9219 2.09443L14.2663 3.26665L14.4997 3.33332C14.7294 3.40187 14.951 3.495 15.1608 3.6111L15.3719 3.72776L16.433 3.17221L16.9886 3.72776L16.433 4.83888L16.5441 5.04443C16.6579 5.25655 16.7491 5.47999 16.8163 5.7111L16.883 5.94443L18.0441 6.29443V6.98888L16.8886 7.33888L16.8219 7.57221C16.7549 7.8052 16.6637 8.03051 16.5497 8.24443L16.4386 8.44999L16.9941 9.52776L16.4386 10.0833L15.3608 9.52776L15.1497 9.64999C14.9249 9.76146 14.6882 9.84719 14.4441 9.90554L14.2386 9.99999L13.8886 11.1111H13.1608L12.8219 9.99999L12.5941 9.92777C12.356 9.85569 12.1267 9.75692 11.9108 9.63332L11.6663 9.49999L10.6386 10.0555L10.1163 9.49999L10.6719 8.44999L10.5552 8.23888C10.4336 8.01681 10.3367 7.78207 10.2663 7.53888L10.1997 7.3111L9.08856 6.9611V6.19443L10.1997 5.84999L10.2663 5.62221C10.3382 5.38662 10.435 5.1594 10.5552 4.94443L10.6719 4.73332L10.1163 3.66665L10.6719 3.1111L11.7219 3.66665L11.933 3.54999C12.1464 3.43347 12.3718 3.34034 12.6052 3.27221L12.8386 3.20554L13.1774 2.0611L13.9219 2.09443Z" fill="black"/>
<path d="M11.3057 6.59993C11.3144 7.03745 11.4522 7.46264 11.7016 7.82219C11.9511 8.18174 12.3011 8.45964 12.7079 8.62104C13.1146 8.78244 13.56 8.82015 13.9881 8.72945C14.4162 8.63876 14.8079 8.42368 15.1143 8.1112C15.4207 7.79872 15.6279 7.40275 15.7101 6.97293C15.7923 6.54312 15.7458 6.09861 15.5764 5.69513C15.407 5.29166 15.1222 4.94718 14.7578 4.70491C14.3934 4.46264 13.9655 4.33335 13.5279 4.33326C12.9336 4.34204 12.3667 4.58507 11.9506 5.00952C11.5345 5.43398 11.3027 6.00553 11.3057 6.59993ZM14.8946 6.59993C14.8891 6.86568 14.8053 7.12391 14.6537 7.34223C14.5021 7.56055 14.2894 7.72926 14.0422 7.82719C13.7951 7.92512 13.5246 7.94792 13.2646 7.89274C13.0046 7.83755 12.7666 7.70684 12.5806 7.51698C12.3946 7.32712 12.2687 7.08656 12.2188 6.82548C12.169 6.56439 12.1973 6.29439 12.3002 6.04932C12.4032 5.80425 12.5762 5.59503 12.7975 5.44788C13.0189 5.30073 13.2788 5.22221 13.5446 5.22215C13.7241 5.22361 13.9015 5.2604 14.0667 5.33043C14.232 5.40045 14.3818 5.50235 14.5077 5.63028C14.6336 5.75822 14.733 5.9097 14.8004 6.07608C14.8677 6.24245 14.9016 6.42046 14.9001 6.59993H14.8946Z" fill="black"/>
<path d="M17.2225 11.9501V16.6667H2.7781L2.7781 5.55561H7.16144C7.23259 5.31313 7.35463 5.08861 7.5194 4.89701C7.68417 4.70542 7.8879 4.55115 8.11699 4.4445H2.7781C2.48342 4.4445 2.2008 4.56156 1.99243 4.76994C1.78406 4.97831 1.66699 5.26093 1.66699 5.55561L1.66699 16.6667C1.66699 16.9614 1.78406 17.244 1.99243 17.4524C2.2008 17.6608 2.48342 17.7778 2.7781 17.7778H17.2225C17.5172 17.7778 17.7999 17.6608 18.0082 17.4524C18.2166 17.244 18.3337 16.9614 18.3337 16.6667V10.9834L17.7337 11.5945C17.5862 11.743 17.413 11.8635 17.2225 11.9501Z" fill="black"/>
</svg>
