<svg width="17" height="17" viewBox="0 0 17 17" fill="none" xmlns="http://www.w3.org/2000/svg">
<g clip-path="url(#clip0)">
<path d="M5.22187 9.74403C5.02987 9.74412 4.8741 9.90002 4.87419 10.092L4.87609 14.2659C4.87655 15.2245 5.65671 16.0047 6.61603 16.0043L14.2682 16.0008C15.2275 16.0004 16.007 15.2195 16.0065 14.2609L16.0009 1.73915C16.0004 0.780554 15.2202 0.000387338 14.2609 0.000822745L6.60876 0.00429599C5.64945 0.00473141 4.87 0.785606 4.87043 1.7442L4.87233 5.91811C4.87242 6.11011 5.02833 6.26588 5.22032 6.26579C5.41232 6.26571 5.56806 6.1098 5.56797 5.9178L5.56608 1.74389C5.56582 1.16857 6.03377 0.700198 6.60908 0.699936L14.2613 0.696463C14.8366 0.696202 15.3049 1.16415 15.3052 1.73947L15.3109 14.2612C15.3112 14.8365 14.8432 15.3049 14.2679 15.3051L6.61571 15.3086C6.0404 15.3089 5.57202 14.8409 5.57176 14.2656L5.56987 10.0917C5.56978 9.89971 5.41387 9.74394 5.22187 9.74403Z" fill="white"/>
<path d="M0.351583 8.35494L11.482 8.34989C11.674 8.3498 11.8298 8.19389 11.8297 8.0019C11.8296 7.8099 11.6737 7.65416 11.4817 7.65425L0.351267 7.6593C0.159267 7.65939 0.00350148 7.8153 0.00358862 8.0073C0.00367577 8.1993 0.159583 8.35503 0.351583 8.35494Z" fill="white"/>
<path d="M0.106074 8.2521L2.19398 10.3381C2.32969 10.4737 2.55022 10.4736 2.68581 10.3379C2.8214 10.2022 2.8213 9.98164 2.68559 9.84605L0.84406 8.00619L2.68392 6.16466C2.81951 6.02894 2.81941 5.80841 2.6837 5.67282C2.61548 5.60539 2.52644 5.57132 2.43739 5.57136C2.34833 5.5714 2.25933 5.60551 2.19186 5.67233L0.10585 7.76023C-0.0297402 7.89598 -0.0296401 8.11651 0.106074 8.2521Z" fill="white"/>
</g>
<defs>
<clipPath id="clip0">
<rect width="16" height="16" fill="white" transform="translate(16.0073 16) rotate(179.974)"/>
</clipPath>
</defs>
</svg>