<svg width="31" height="31" viewBox="0 0 31 31" fill="none" xmlns="http://www.w3.org/2000/svg">
<path d="M19.9113 12.8008C19.9113 11.5276 19.4093 10.3065 18.5158 9.40613C17.6223 8.5058 16.4104 8 15.1468 8C13.8832 8 12.6713 8.5058 11.7778 9.40613C10.8842 10.3065 10.3823 11.5276 10.3823 12.8008C10.3823 18.4018 8 20.0021 8 20.0021H22.2936C22.2936 20.0021 19.9113 18.4018 19.9113 12.8008Z" stroke="#646464" stroke-width="0.5" stroke-linecap="round" stroke-linejoin="round"/>
<path d="M16.5205 23.2026C16.3808 23.4451 16.1805 23.6464 15.9394 23.7863C15.6983 23.9263 15.4249 23.9999 15.1467 23.9999C14.8685 23.9999 14.5951 23.9263 14.354 23.7863C14.1129 23.6464 13.9125 23.4451 13.7729 23.2026" stroke="#646464" stroke-width="0.5" stroke-linecap="round" stroke-linejoin="round"/>
</svg>
