<svg width="32" height="31" viewBox="0 0 32 31" fill="none" xmlns="http://www.w3.org/2000/svg">
<path d="M16.3518 23.6051C15.8162 24.1263 14.9457 24.1282 14.4077 23.6093C13.8697 23.0903 13.8677 22.2471 14.4034 21.7259C14.9391 21.2047 15.8095 21.2028 16.3475 21.7217C16.8856 22.2407 16.8875 23.0839 16.3518 23.6051Z" fill="#646464"/>
<path d="M16.3518 16.9384C15.8162 17.4596 14.9457 17.4614 14.4077 16.9425C13.8697 16.4236 13.8677 15.5804 14.4034 15.0591C14.9391 14.5379 15.8095 14.5361 16.3475 15.055C16.8856 15.5739 16.8875 16.4171 16.3518 16.9384Z" fill="#646464"/>
<path d="M16.3518 10.2743C15.8162 10.7955 14.9457 10.7974 14.4077 10.2785C13.8697 9.75953 13.8677 8.91631 14.4034 8.39508C14.9391 7.87386 15.8095 7.87199 16.3475 8.39092C16.8856 8.90985 16.8875 9.75306 16.3518 10.2743Z" fill="#646464"/>
</svg>
