<svg width="32" height="31" viewBox="0 0 32 31" fill="none" xmlns="http://www.w3.org/2000/svg">
<path fill-rule="evenodd" clip-rule="evenodd" d="M9.0868 13.2495C10.5669 9.43067 14.8625 7.53469 18.6814 9.01475C20.7904 9.83215 22.4111 11.5674 23.0827 13.7272C23.0894 13.7483 23.0985 13.768 23.1099 13.7861C23.3141 14.4627 23.4241 15.1799 23.4247 15.9225C23.4255 16.7863 23.2782 17.6159 23.0067 18.3874L22.9121 18.6145C21.4313 22.4331 17.1354 24.3282 13.3168 22.8474C11.2267 22.0369 9.61546 20.3245 8.93359 18.189C8.89066 18.0544 8.74676 17.9801 8.61216 18.023C8.47755 18.066 8.40327 18.2099 8.44619 18.3445C9.77855 22.5149 14.2394 24.8156 18.4099 23.4833C19.3832 23.1723 20.2741 22.6808 21.0432 22.0461L21.0432 22.0478C22.2351 21.0649 23.1351 19.7428 23.5941 18.2299L23.6366 18.1119L23.6306 18.1059C23.8287 17.412 23.9345 16.6794 23.9338 15.9221C23.9324 14.2114 23.388 12.6275 22.4633 11.3323C20.5308 8.61523 17.0045 7.31564 13.6477 8.35995C11.3275 9.08175 9.46644 10.8278 8.59838 13.0974L8.11379 12.9468L8 15.8146L9.53252 13.3881L9.0868 13.2495ZM8.00574 15.9359L8.00575 15.9126L8.00579 15.9591L8.00574 15.9359Z" fill="#646464"/>
<path d="M15.4912 10.908L15.4912 16.6649" stroke="#646464" stroke-width="0.571429" stroke-linecap="round"/>
<path d="M19.4548 16.7082L15.509 16.7084" stroke="#646464" stroke-width="0.571429" stroke-linecap="round"/>
</svg>

